<svg version="1.1" xmlns="http://www.w3.org/2000/svg" width="22" height="28" viewBox="0 0 22 28">
  <title>paperclip</title>
  <path
    d="M21.938 21.641c0 2.438-1.859 4.297-4.297 4.297-1.375 0-2.703-0.594-3.672-1.563l-12.141-12.125c-1.109-1.125-1.766-2.656-1.766-4.234 0-3.313 2.609-5.953 5.922-5.953 1.594 0 3.125 0.641 4.266 1.766l9.453 9.469c0.094 0.094 0.156 0.219 0.156 0.344 0 0.328-0.875 1.203-1.203 1.203-0.141 0-0.266-0.063-0.359-0.156l-9.469-9.484c-0.75-0.734-1.766-1.203-2.828-1.203-2.219 0-3.938 1.797-3.938 4 0 1.062 0.438 2.078 1.188 2.828l12.125 12.141c0.594 0.594 1.422 0.984 2.266 0.984 1.328 0 2.312-0.984 2.312-2.312 0-0.859-0.391-1.672-0.984-2.266l-9.078-9.078c-0.25-0.234-0.594-0.375-0.938-0.375-0.594 0-1.047 0.438-1.047 1.047 0 0.344 0.156 0.672 0.391 0.922l6.406 6.406c0.094 0.094 0.156 0.219 0.156 0.344 0 0.328-0.891 1.219-1.219 1.219-0.125 0-0.25-0.063-0.344-0.156l-6.406-6.406c-0.625-0.609-0.984-1.469-0.984-2.328 0-1.719 1.344-3.062 3.063-3.062 0.875 0 1.719 0.359 2.328 0.984l9.078 9.078c0.984 0.969 1.563 2.297 1.563 3.672z">
  </path>
</svg>